<?xml version="1.0" standalone="no"?> <!DOCTYPE svg PUBLIC "-//W3C//DTD SVG 1.0//EN" "http://www.w3.org/TR/2001/REC-SVG-20010904/DTD/svg10.dtd" > <svg xmlns="http://www.w3.org/2000/svg" width="100%" height="100%">
<defs >
<font id="bensr" horiz-adv-x="461" ><font-face
    font-family="BentonSans-Regular"
    units-per-em="1000"
    panose-1="2 0 6 3 4 0 0 2 0 4"
    ascent="787"
    descent="-213"
    alphabetic="0" />
<missing-glyph horiz-adv-x="500" />
<glyph unicode=" " glyph-name="space" horiz-adv-x="234" />
<glyph unicode="!" glyph-name="exclam" horiz-adv-x="321" d="M108 740H215L190 208H134L108 740ZM110 103H213V0H110V103Z" />
<glyph unicode="&quot;" glyph-name="quotedbl" horiz-adv-x="415" d="M255 681V740H336V681L319 485H272L255 681ZM78 681V740H160V681L143 485H95L78 681Z" />
<glyph unicode="#" glyph-name="numbersign" horiz-adv-x="718" d="M155 211H40V280H170L207 460H83V529H222L266 740H345L301 529H478L522 740H601L557 529H677V460H543L505 280H634V211H491L446 0H367L411 211H235L190 0H111L155 211ZM426 280L463 460H287L249
280H426Z" />
<glyph unicode="$" glyph-name="dollar" horiz-adv-x="654" d="M295 -5Q246 -1 208 13T140 47T91 92T56 139L120 181Q152 133 193 102T298 65V351Q255 363 215 378T144 417T95 473T77 554Q77 593 92 627T135 686T203 728T295 747V819H357V745Q399 741 431 729T487
700T530 662T562 619L499 572Q473 614 442 640T355 673V415Q401 402 444 387T520 347T573 286T593 197Q593 112 532 57T357 -6V-93H295V-5V-5ZM298 675Q226 671 194 639T161 561Q161 533 171 513T200 478T243 452T298 432V675V675ZM355 65Q388 67 416 74T464 97T497
134T509 190Q509 222 497 245T465 284T416 313T355 335V65V65Z" />
<glyph unicode="%" glyph-name="percent" horiz-adv-x="995" d="M231 299Q189 299 157 315T103 361T70 432T58 523Q58 575 70 617T105 689T160 735T232 751Q312 751 357 690T403 526Q403 476 392 435T358 363T304 316T231 299ZM680 740H758L316 0H238L680 740ZM764
-10Q723 -10 691 6T637 52T604 123T592 214Q592 266 604 308T639 380T694 426T766 442Q805 442 837 426T891 381T925 310T937 217Q937 168 926 126T892 54T837 7T764 -10ZM232 365Q279 365 303 410T327 524Q327 598 303 641T231 685Q183 685 159 640T135 526Q135
452 159 409T232 365ZM765 55Q789 55 807 67T837 101T855 152T861 216Q861 290 837 333T764 376Q716 376 692 331T668 217Q668 143 692 99T765 55Z" />
<glyph unicode="&amp;" glyph-name="ampersand" horiz-adv-x="725" d="M284 -14Q223 -14 177 0T99 41T51 103T35 183Q35 224 49 257T86 318T141 368T208 408Q183 453 171 493T158 577Q158 612 169 643T202 700T259 739T338 754Q379 754 409 743T459 711T490 665T500
608Q500 569 486 538T446 480T387 433T315 392Q328 372 344 351T379 306Q413 262 442 228T498 168Q527 208 545 259T571 372H651Q641 301 618 238T557 123Q597 92 632 79T704 66V-10Q646 -8 599 8T502 64Q459 27 406 7T284 -14ZM283 444Q312 459 337 475T380 510T410
551T421 602Q421 634 401 659T338 684Q291 684 266 657T241 582Q241 547 251 515T283 444ZM290 59Q381 59 445 111Q416 139 383 176T311 262Q291 287 274 309T243 353Q189 321 156 281T123 192Q123 127 165 93T290 59Z" />
<glyph unicode="&apos;" glyph-name="quotesingle" horiz-adv-x="239" d="M78 681V740H160V681L143 485H95L78 681Z" />
<glyph unicode="(" glyph-name="parenleft" horiz-adv-x="399" d="M310 -205Q187 -102 123 14T59 275Q59 419 123 535T310 755L349 712Q259 627 206 517T152 275Q152 143 206 32T351 -164L310 -205V-205Z" />
<glyph unicode=")" glyph-name="parenright" horiz-adv-x="399" d="M48 -164Q139 -79 192 32T246 275Q246 407 193 517T49 712L89 755Q211 652 275 536T339 275Q339 131 276 15T89 -205L48 -164Z" />
<glyph unicode="*" glyph-name="asterisk" horiz-adv-x="508" d="M120 376L222 524L42 512V574L223 561L120 709L177 743L254 580L331 743L388 709L286 561L466 574V512L286 524L388 376L332 343L254 506L177 343L120 376Z" />
<glyph unicode="+" glyph-name="plus" horiz-adv-x="638" d="M282 297H66V369H282V589H356V369H573V297H356V77H282V297Z" />
<glyph unicode="," glyph-name="comma" horiz-adv-x="271" d="M123 0H84V105H187V12L136 -105H96L123 0Z" />
<glyph unicode="-" glyph-name="hyphen" horiz-adv-x="357" d="M62 348H295V280H62V348Z" />
<glyph unicode="." glyph-name="period" horiz-adv-x="271" d="M84 105H187V0H84V105Z" />
<glyph unicode="/" glyph-name="slash" horiz-adv-x="566" d="M453 740H543L113 0H23L453 740Z" />
<glyph unicode="0" glyph-name="zero" horiz-adv-x="661" d="M331 -14Q265 -14 213 13T125 91T71 212T52 370Q52 457 70 527T125 648T213 726T331 754Q398 754 449 727T536 649T590 528T608 370Q608 283 590 213T537 92T450 14T331 -14ZM331 63Q421 63 471 140T521
370Q521 522 470 599T331 676Q240 676 190 599T140 370Q140 218 191 141T331 63Z" />
<glyph unicode="1" glyph-name="one" horiz-adv-x="437" d="M54 78H193V648Q166 634 127 624T56 614V692Q99 694 135 705T197 740H279V78H403V0H54V78Z" />
<glyph unicode="2" glyph-name="two" horiz-adv-x="592" d="M44 16Q44 56 54 95T92 175T167 258T287 348Q329 375 358 397T406 442T434 489T443 543Q443 604 407 640T304 676Q190 676 123 554L55 596Q96 670 158 712T308 754Q359 754 400 739T469 697T513 632T529
549Q529 513 520 482T490 420T432 360T343 296Q246 234 198 180T143 78H533V0H44V16Z" />
<glyph unicode="3" glyph-name="three" horiz-adv-x="597" d="M287 -14Q203 -14 136 20T26 121L90 169Q130 112 179 88T287 63Q365 63 410 100T455 203Q455 280 402 317T227 355H197V428H232Q289 428 328 436T392 461T426 502T437 557Q437 610 403 642T290 675Q236
675 192 652T116 591L59 644Q101 692 161 722T297 753Q356 753 399 739T469 699T510 640T524 568Q524 498 486 453T380 393Q463 376 502 328T542 201Q542 154 524 115T473 47T393 2T287 -14Z" />
<glyph unicode="4" glyph-name="four" horiz-adv-x="619" d="M387 171H30V238L367 740H472V248H597V171H472V0H387V171ZM387 248V637H385L127 248H387Z" />
<glyph unicode="5" glyph-name="five" horiz-adv-x="587" d="M285 -14Q202 -14 138 20T34 112L93 166Q128 121 173 92T283 63Q328 63 361 78T416 117T448 174T459 243Q459 328 415 371T298 415Q244 415 205 393T135 329L72 351L101 740H503L496 661H172L154 425Q180
454 218 471T315 489Q367 489 409 472T482 424T529 347T546 247Q546 190 528 143T477 60T395 6T285 -14Z" />
<glyph unicode="6" glyph-name="six" horiz-adv-x="619" d="M322 -14Q265 -14 216 8T130 77T73 193T52 357Q52 446 74 519T137 645T233 725T352 754Q414 754 458 737T533 696L489 631Q461 652 429 664T349 677Q301 677 263 654T197 591T154 494T138 372Q174 410
225 438T344 466Q401 466 444 450T517 403T562 329T577 234Q577 180 558 135T506 56T425 5T322 -14ZM327 61Q402 61 447 106T492 232Q492 267 483 296T455 346T405 379T331 391Q272 391 222 363T140 293Q145 232 161 189T202 117T259 75T327 61Z" />
<glyph unicode="7" glyph-name="seven" horiz-adv-x="547" d="M418 661H43V740H510V666L202 0H112L418 661Z" />
<glyph unicode="8" glyph-name="eight" horiz-adv-x="613" d="M307 -16Q243 -16 193 -1T108 40T55 103T36 181Q36 219 49 250T87 306T147 352T226 391Q190 408 161 426T112 465T81 513T70 574Q70 609 86 641T132 699T206 740T307 756Q365 756 409 741T482 700T527
641T542 574Q542 509 501 469T385 394Q430 375 465 355T525 309T563 253T576 181Q576 140 558 104T506 42T421 0T307 -16ZM311 426Q350 443 377 458T422 490T448 526T457 569Q457 590 448 610T421 646T375 672T307 682Q269 682 241 673T194 648T166 613T156 572Q156
547 165 527T194 491T242 459T311 426ZM307 57Q347 57 380 66T438 92T475 132T489 186Q489 215 477 238T441 282T382 320T301 358Q256 338 223 319T168 280T135 237T124 186Q124 158 137 134T175 93T233 67T307 57Z" />
<glyph unicode="9" glyph-name="nine" horiz-adv-x="619" d="M267 -14Q203 -14 156 5T78 50L121 115Q151 92 185 77T270 62Q318 62 356 85T422 149T464 246T480 368Q444 330 393 302T274 274Q218 274 175 290T102 337T57 411T42 506Q42 560 61 605T113 684T194
735T297 754Q354 754 403 732T489 663T545 548T566 383Q566 294 544 221T481 95T387 15T267 -14ZM288 349Q346 349 396 377T478 447Q473 508 457 551T417 623T360 664T292 678Q217 678 172 634T127 508Q127 474 136 445T164 394T214 361T288 349Z" />
<glyph unicode=":" glyph-name="colon" horiz-adv-x="275" d="M86 528H189V422H86V528ZM86 105H189V0H86V105Z" />
<glyph unicode=";" glyph-name="semicolon" horiz-adv-x="275" d="M86 528H189V422H86V528ZM125 0H86V105H189V13L137 -105H97L125 0Z" />
<glyph unicode="&lt;" glyph-name="less" horiz-adv-x="638" d="M53 295V353L582 580V503L150 324L582 145V68L53 295Z" />
<glyph unicode="=" glyph-name="equal" horiz-adv-x="638" d="M66 474H571V405H66V474ZM66 246H571V177H66V246Z" />
<glyph unicode="&gt;" glyph-name="greater" horiz-adv-x="638" d="M58 145L490 324L58 503V580L587 353V295L58 68V145Z" />
<glyph unicode="?" glyph-name="question" horiz-adv-x="549" d="M213 207Q210 239 210 274Q210 328 232 363T303 427Q331 444 351 458T385 488T405 523T412 568Q412 619 376 647T274 676Q212 676 170 649T96 580L37 629Q58 656 82 678T136 718T201 744T280 754Q331
754 371 741T440 703T484 646T499 573Q499 537 489 510T462 462T422 423T373 391Q341 373 323 357T296 321T285 275T283 207H213V207ZM197 103H299V0H197V103Z" />
<glyph unicode="@" glyph-name="at" horiz-adv-x="868" d="M431 -14Q346 -14 276 14T154 92T75 213T47 369Q47 455 76 525T157 647T280 726T435 754Q519 754 589 727T711 650T792 532T821 380Q821 328 808 287T772 216T717 171T647 155Q596 155 567 176T526 231Q491
199 452 180T362 160Q297 160 256 199T215 319Q215 377 230 426T273 512T338 568T421 589Q466 589 495 574T548 536L555 581H625L581 285Q575 249 594 226T655 202Q704 202 738 245T773 378Q773 451 748 512T678 616T571 684T435 708Q361 708 299 683T192 614T122
507T97 369Q97 294 122 232T191 125T297 55T432 30Q492 30 540 43T633 82L654 46Q608 18 551 2T431 -14ZM379 217Q414 217 445 231T510 277L540 476Q516 504 489 516T425 529Q394 529 368 513T324 468T296 404T286 326Q286 269 310 243T379 217Z" />
<glyph unicode="A" glyph-name="A" horiz-adv-x="680" d="M294 743H386L648 0H557L484 212H190L117 0H32L294 743ZM457 289L339 636H337L217 289H457Z" />
<glyph unicode="B" glyph-name="B" horiz-adv-x="691" d="M91 740H356Q477 740 543 694T609 555Q609 517 599 488T569 438T526 404T472 384V382Q506 376 535 362T586 326T620 274T633 202Q633 108 567 54T377 0H91V740ZM348 417Q432 417 477 447T523 541Q523 605
482 633T350 662H178V417H348ZM371 77Q462 77 504 110T546 208Q546 278 495 309T353 341H178V77H371Z" />
<glyph unicode="C" glyph-name="C" horiz-adv-x="705" d="M369 -14Q299 -14 241 12T142 89T78 210T55 373Q55 460 78 530T142 650T242 727T369 754Q428 754 473 738T552 692T608 620T643 527L559 504Q535 589 492 631T368 673Q316 673 275 652T204 592T160 498T144
374Q144 226 205 146T370 66Q525 66 571 245L654 226Q641 171 617 127T557 52T474 3T369 -14Z" />
<glyph unicode="D" glyph-name="D" horiz-adv-x="715" d="M91 740H286Q465 740 562 649T659 372Q659 278 634 208T561 92T444 23T286 0H91V740ZM297 79Q431 79 501 148T571 372Q571 521 501 590T295 659H179V79H297Z" />
<glyph unicode="E" glyph-name="E" horiz-adv-x="609" d="M91 740H545V659H179V428H451V349H179V80H566V0H91V740Z" />
<glyph unicode="F" glyph-name="F" horiz-adv-x="569" d="M91 740H535V659H179V421H441V342H179V0H91V740Z" />
<glyph unicode="G" glyph-name="G" horiz-adv-x="730" d="M364 -14Q289 -14 232 15T135 95T75 218T55 373Q55 461 78 531T143 651T243 727T370 754Q476 754 545 698T644 525L562 504Q536 593 491 633T369 673Q326 673 285 656T213 603T163 510T144 376Q144 298
161 240T208 143T281 85T372 65Q459 65 512 121T567 280H397V354H652V0H575V111H573Q562 88 544 66T501 26T441 -3T364 -14Z" />
<glyph unicode="H" glyph-name="H" horiz-adv-x="739" d="M91 740H179V430H560V740H648V0H560V349H179V0H91V740Z" />
<glyph unicode="I" glyph-name="I" horiz-adv-x="290" d="M101 740H189V0H101V740Z" />
<glyph unicode="J" glyph-name="J" horiz-adv-x="505" d="M212 -14Q144 -14 100 12T24 83L83 133Q106 102 135 83T209 63Q237 63 260 70T299 94T325 138T334 206V740H422V200Q422 95 367 41T212 -14Z" />
<glyph unicode="K" glyph-name="K" horiz-adv-x="678" d="M91 740H179V358L514 740H620L366 458L655 0H554L308 391L179 250V0H91V740Z" />
<glyph unicode="L" glyph-name="L" horiz-adv-x="569" d="M91 740H179V80H535V0H91V740Z" />
<glyph unicode="M" glyph-name="M" horiz-adv-x="878" d="M91 740H206L439 111H441L670 740H787V0H700V599H698Q690 570 678 535T653 463L476 0H397L220 463Q213 481 208 497T197 529T186 562T174 602H172V0H91V740Z" />
<glyph unicode="N" glyph-name="N" horiz-adv-x="749" d="M91 740H184L573 155H575V740H658V0H579L176 601H174V0H91V740Z" />
<glyph unicode="O" glyph-name="O" horiz-adv-x="749" d="M375 -14Q306 -14 248 12T147 88T80 209T55 370Q55 459 79 530T146 651T247 727T375 754Q444 754 502 728T602 652T669 531T693 370Q693 281 669 210T603 89T502 13T375 -14ZM375 65Q425 65 467 85T540
145T588 241T605 370Q605 442 588 498T541 594T468 653T375 674Q324 674 282 654T209 594T161 499T144 370Q144 298 161 241T208 145T281 86T375 65Z" />
<glyph unicode="P" glyph-name="P" horiz-adv-x="649" d="M91 740H342Q402 740 451 728T535 691T590 625T609 530Q609 471 588 430T531 362T444 325T336 313H179V0H91V740ZM341 391Q430 391 476 421T522 527Q522 599 477 629T340 660H179V391H341Z" />
<glyph unicode="Q" glyph-name="Q" horiz-adv-x="749" d="M550 -188Q493 -188 451 -175T382 -138T340 -81T325 -9Q266 -1 217 29T131 108T75 223T55 370Q55 459 80 530T148 651T249 727T375 754Q442 754 500 728T601 652T668 531T693 370Q693 288 672 221T614
105T526 27T414 -10Q418 -42 430 -61T464 -92T513 -108T576 -112H627V-188H550V-188ZM375 64Q425 64 467 84T539 144T587 241T604 370Q604 442 587 498T540 594T467 653T375 674Q324 674 282 654T208 594T160 499T143 370Q143 298 160 241T208 145T281 85T375 64Z"
/>
<glyph unicode="R" glyph-name="R" horiz-adv-x="677" d="M91 740H345Q472 740 540 688T608 533Q608 443 562 395T436 330L618 0H522L345 319H178V0H91V740ZM340 397Q427 397 474 425T521 530Q521 603 475 631T339 660H178V397H340Z" />
<glyph unicode="S" glyph-name="S" horiz-adv-x="657" d="M334 -14Q228 -14 156 38T54 179L128 212Q156 137 209 101T338 64Q416 64 463 95T511 186Q511 213 503 234T473 274T416 308T325 341Q267 359 222 377T145 419T96 476T79 558Q79 600 96 636T145 698T220
739T317 754Q370 754 412 742T486 707T541 654T578 588L508 549Q478 616 430 645T316 674Q245 674 206 644T166 565Q166 535 176 515T209 478T269 446T361 414Q417 397 461 378T535 334T582 274T598 192Q598 146 579 108T525 43T442 1T334 -14Z" />
<glyph unicode="T" glyph-name="T" horiz-adv-x="623" d="M267 659H32V740H591V659H355V0H267V659Z" />
<glyph unicode="U" glyph-name="U" horiz-adv-x="717" d="M359 -13Q288 -13 236 7T151 64T101 149T84 256V740H172V268Q172 223 183 186T217 123T275 81T360 66Q457 66 501 121T546 266V740H633V258Q633 200 616 151T565 65T479 8T359 -13Z" />
<glyph unicode="V" glyph-name="V" horiz-adv-x="666" d="M32 740H122L334 115H336L549 740H634L374 -3H292L32 740Z" />
<glyph unicode="W" glyph-name="W" horiz-adv-x="931" d="M36 740H125L234 311Q247 262 258 216T277 130H279Q287 169 297 215T321 310L424 740H513L619 307Q631 257 641 215T660 130H662Q671 175 681 215T703 304L811 740H895L699 0H618L469 619H467L314 0H233L36 740Z" />
<glyph unicode="X" glyph-name="X" horiz-adv-x="670" d="M286 395L63 740H164L339 465L511 740H604L383 396L638 0H542L333 326L123 0H32L286 395Z" />
<glyph unicode="Y" glyph-name="Y" horiz-adv-x="631" d="M271 324L22 740H116L317 399L517 740H609L359 324V0H271V324Z" />
<glyph unicode="Z" glyph-name="Z" horiz-adv-x="630" d="M40 62L473 666H68V740H581V676L151 73H581V0H40V62Z" />
<glyph unicode="[" glyph-name="bracketleft" horiz-adv-x="399" d="M84 740H355V676H171V-136H355V-200H84V740Z" />
<glyph unicode="\" glyph-name="backslash" horiz-adv-x="556" d="M18 740H108L538 0H448L18 740Z" />
<glyph unicode="]" glyph-name="bracketright" horiz-adv-x="399" d="M43 -136H227V675H43V740H314V-200H43V-136Z" />
<glyph unicode="^" glyph-name="asciicircum" horiz-adv-x="518" d="M227 743H290L419 582H367L258 676L150 582H98L227 743Z" />
<glyph unicode="_" glyph-name="underscore" horiz-adv-x="500" d="M0 -65H500V-132H0V-65Z" />
<glyph unicode="`" glyph-name="grave" horiz-adv-x="500" d="M136 743H241L335 585H278L136 743Z" />
<glyph unicode="a" glyph-name="a" horiz-adv-x="553" d="M193 -8Q124 -8 84 26T44 125Q44 165 62 199T122 261T231 310T397 345V369Q397 467 297 467Q237 467 191 444T106 387L61 441Q107 483 167 511T306 539Q353 539 386 527T441 493T472 437T482 363V130Q482
82 485 51T497 0H409Q404 17 401 33T397 73Q310 -8 193 -8ZM218 60Q271 60 315 80T397 137V285Q322 273 271 258T188 225T143 185T129 138Q129 100 152 80T218 60Z" />
<glyph unicode="b" glyph-name="b" horiz-adv-x="599" d="M327 -8Q278 -8 237 12T162 68V0H76V740H162V454Q192 488 234 513T336 539Q381 539 420 522T489 471T534 386T551 265Q551 196 534 145T487 60T416 9T327 -8ZM315 62Q384 62 424 110T465 264Q465 365 423
415T316 465Q270 465 233 443T162 384V142Q233 62 315 62Z" />
<glyph unicode="c" glyph-name="c" horiz-adv-x="536" d="M281 -11Q235 -11 193 6T118 58T66 144T46 264Q46 336 67 388T122 473T200 523T288 539Q333 539 366 527T424 495T466 447T495 391L422 361Q402 412 370 439T286 466Q258 466 231 456T181 421T146 359T133
264Q133 166 175 114T284 61Q335 61 367 85T426 167L497 139Q482 106 462 79T416 31T357 0T281 -11Z" />
<glyph unicode="d" glyph-name="d" horiz-adv-x="599" d="M262 -8Q217 -8 178 8T109 58T64 143T47 263Q47 332 64 384T111 470T182 522T272 539Q320 539 363 518T436 461V740H522V130Q522 82 525 51T538 0H448Q443 13 440 34T436 75Q404 40 363 16T262 -8ZM283
63Q329 63 366 85T436 144V386Q401 425 364 445T284 466Q215 466 174 417T133 262Q133 211 144 174T176 112T223 75T283 63Z" />
<glyph unicode="e" glyph-name="e" horiz-adv-x="552" d="M285 -11Q238 -11 195 6T119 57T66 143T46 264Q46 336 67 388T123 473T200 523T285 539Q332 539 372 523T441 472T488 385T505 260V242H132Q133 197 146 163T180 106T229 71T291 59Q348 59 384 81T450
145L500 101Q463 48 412 19T285 -11ZM423 309Q418 380 384 423T284 467Q257 467 232 458T187 429T153 380T134 309H423Z" />
<glyph unicode="f" glyph-name="f" horiz-adv-x="344" d="M117 457H25V528H117V599Q117 666 154 704T276 742Q287 742 303 741T325 739V669Q319 671 308 671T288 672Q252 672 228 657T203 598V528H319V457H203V0H117V457Z" />
<glyph unicode="g" glyph-name="g" horiz-adv-x="575" d="M272 -203Q138 -203 78 -168T17 -72Q17 -31 42 -2T113 45Q68 66 68 112Q68 138 86 159T134 197Q96 222 75 260T53 349Q53 391 69 425T113 485T181 525T268 539Q317 539 356 524T424 484Q448 502 482 515T549
533V457Q527 457 502 453T454 440Q481 402 481 349Q481 306 465 272T421 213T353 175T268 161Q245 161 225 164T184 174Q167 166 157 157T147 133Q147 116 162 108T220 96L328 87Q429 80 479 47T530 -50Q530 -88 511 -116T458 -164T377 -193T272 -203ZM269 224Q330
224 365 257T401 347Q401 405 367 438T268 472Q206 472 171 438T135 347Q135 290 171 257T269 224ZM283 -138Q362 -138 406 -116T451 -58Q451 -23 420 -6T305 18L205 25L175 28Q137 14 117 -9T97 -59Q97 -99 140 -118T283 -138Z" />
<glyph unicode="h" glyph-name="h" horiz-adv-x="588" d="M76 740H163V449Q180 466 201 482T247 511T300 531T361 539Q437 539 477 498T517 381V0H431V362Q431 415 408 440T334 465Q286 465 246 442T163 380V0H76V740Z" />
<glyph unicode="i" glyph-name="i" horiz-adv-x="250" d="M80 725H170V641H80V725ZM82 528H168V0H82V528Z" />
<glyph unicode="j" glyph-name="j" horiz-adv-x="250" d="M80 725H170V641H80V725ZM46 -201Q35 -201 17 -200T-6 -197V-132Q1 -134 10 -135T28 -136Q54 -136 68 -122T82 -75V528H168V-81Q168 -108 162 -130T142 -168T105 -192T46 -201Z" />
<glyph unicode="k" glyph-name="k" horiz-adv-x="540" d="M76 740H162V264L398 528H496L323 339L515 0H423L267 275L162 162V0H76V740Z" />
<glyph unicode="l" glyph-name="l" horiz-adv-x="250" d="M82 740H168V0H82V740Z" />
<glyph unicode="m" glyph-name="m" horiz-adv-x="917" d="M76 528H162V448Q200 486 246 512T352 539Q419 539 451 514T497 446Q535 484 583 511T692 539Q773 539 809 496T845 381V0H759V362Q759 415 739 440T667 465Q622 465 584 442T504 380V0H418V362Q418 415
398 440T326 465Q282 465 243 442T162 380V0H76V528Z" />
<glyph unicode="n" glyph-name="n" horiz-adv-x="588" d="M76 528H163V449Q180 466 201 482T247 511T300 531T361 539Q437 539 477 498T517 381V0H431V362Q431 415 408 440T334 465Q286 465 246 442T163 380V0H76V528Z" />
<glyph unicode="o" glyph-name="o" horiz-adv-x="583" d="M292 -11Q244 -11 200 6T121 58T67 144T46 264Q46 332 66 383T120 469T198 521T292 539Q340 539 384 522T463 470T517 384T537 264Q537 196 517 145T463 59T385 7T292 -11ZM292 62Q330 62 359 76T408 117T439
181T450 264Q450 305 440 341T411 405T361 449T292 465Q254 465 225 451T175 410T144 346T133 264Q133 222 143 185T172 121T222 78T292 62Z" />
<glyph unicode="p" glyph-name="p" horiz-adv-x="599" d="M76 528H162V455Q192 488 234 513T336 539Q381 539 420 522T489 471T534 386T551 265Q551 196 534 145T487 60T416 9T327 -8Q278 -8 237 12T162 68V-200H76V528ZM315 62Q384 62 424 110T465 264Q465 365
423 415T316 465Q270 465 233 443T162 384V142Q233 62 315 62Z" />
<glyph unicode="q" glyph-name="q" horiz-adv-x="599" d="M436 75Q404 40 363 16T262 -8Q217 -8 178 8T109 58T64 143T47 263Q47 332 64 384T111 470T182 522T272 539Q320 539 361 518T436 462V528H522V-200H436V75ZM283 63Q329 63 366 85T436 144V386Q401 425
364 445T284 466Q215 466 174 417T133 262Q133 211 144 174T176 112T223 75T283 63Z" />
<glyph unicode="r" glyph-name="r" horiz-adv-x="400" d="M76 528H162V430H164Q193 476 242 507T368 539H379L373 459Q371 460 361 460T348 460Q285 460 238 429T162 341V0H76V528Z" />
<glyph unicode="s" glyph-name="s" horiz-adv-x="512" d="M254 -10Q182 -10 126 15T38 80L90 132Q120 100 160 80T255 59Q317 59 349 80T382 142Q382 182 348 201T246 236Q204 246 169 258T110 287T71 331T57 395Q57 425 69 451T106 497T164 528T242 539Q312 539
359 519T444 463L399 406Q369 434 330 451T246 469Q188 469 164 448T139 398Q139 361 170 344T264 312Q309 301 346 289T409 259T450 213T465 145Q465 107 449 78T405 30T338 0T254 -10Z" />
<glyph unicode="t" glyph-name="t" horiz-adv-x="377" d="M261 -7Q178 -7 146 26T114 128V457H22V528H114V716H200V528H337V457H200V147Q200 105 217 84T282 63Q296 63 310 65T336 70V-1Q325 -3 303 -5T261 -7Z" />
<glyph unicode="u" glyph-name="u" horiz-adv-x="588" d="M227 -10Q151 -10 111 31T71 147V528H157V165Q157 112 180 87T254 62Q302 62 342 85T425 147V528H512V0H425V79Q408 62 387 46T341 18T288 -2T227 -10Z" />
<glyph unicode="v" glyph-name="v" horiz-adv-x="515" d="M20 528H112L260 100H262L408 528H494L301 -2H214L20 528Z" />
<glyph unicode="w" glyph-name="w" horiz-adv-x="752" d="M22 528H111L180 280Q187 256 192 235T203 194T214 152T226 104H228Q235 132 240 154T251 196T261 236T274 281L341 528H416L485 276Q492 252 497 232T508 192T518 151T529 104H531Q538 130 543 151T554
192T564 231T577 274L649 528H730L569 0H489L377 413H375L262 0H183L22 528Z" />
<glyph unicode="x" glyph-name="x" horiz-adv-x="518" d="M215 273L40 528H134L263 335L391 528H482L306 274L493 0H400L258 210L117 0H27L215 273Z" />
<glyph unicode="y" glyph-name="y" horiz-adv-x="533" d="M106 -203Q71 -203 48 -199T7 -190L27 -121Q38 -124 57 -127T105 -130Q146 -130 168 -112T206 -55L226 -3L22 528H113L268 101H270L425 528H512L286 -60Q273 -95 258 -121T221 -166T173 -193T106 -203Z" />
<glyph unicode="z" glyph-name="z" horiz-adv-x="510" d="M39 52L348 458H63V528H456V474L146 69H471V0H39V52Z" />
<glyph unicode="{" glyph-name="braceleft" horiz-adv-x="391" d="M276 -200Q207 -200 176 -164T144 -62V118Q144 155 137 178T117 214T82 233T33 238V302Q61 302 82 307T116 325T137 362T144 422V602Q144 668 175 704T276 740H353V676H309Q268 676 250 657T231
599V415Q231 378 226 354T209 313T182 288T146 271V269Q166 262 182 253T209 227T225 187T231 125V-59Q231 -97 249 -116T309 -136H353V-200H276V-200Z" />
<glyph unicode="|" glyph-name="bar" horiz-adv-x="355" d="M135 740H219V-200H135V740Z" />
<glyph unicode="}" glyph-name="braceright" horiz-adv-x="391" d="M38 -136H82Q123 -136 141 -117T160 -59V130Q160 167 165 190T182 229T209 253T245 269V271Q225 278 209 286T182 310T166 349T160 410V599Q160 637 143 658T85 679H41L38 740H120Q189 740 218
707T247 607V422Q247 385 254 362T274 326T309 307T358 302V238Q330 238 309 233T275 215T254 178T247 118V-67Q247 -133 218 -166T120 -200H38V-136Z" />
<glyph unicode="~" glyph-name="asciitilde" horiz-adv-x="508" d="M328 407Q306 407 286 416T248 435T214 454T182 463Q160 463 151 451T141 409H88Q88 472 111 500T180 528Q202 528 222 520T260 501T294 481T327 472Q348 472 358 484T368 526H419Q419 464 396
436T328 407Z" />
</font>
</defs>
</svg>
