<?xml version="1.0" standalone="no"?> <!DOCTYPE svg PUBLIC "-//W3C//DTD SVG 1.0//EN" "http://www.w3.org/TR/2001/REC-SVG-20010904/DTD/svg10.dtd" > <svg xmlns="http://www.w3.org/2000/svg" width="100%" height="100%">
<defs >
<font id="bensbd" horiz-adv-x="493" ><font-face
    font-family="BentonSans-Bold"
    units-per-em="1000"
    panose-1="2 0 8 3 4 0 0 2 0 4"
    ascent="787"
    descent="-213"
    alphabetic="0" />
<missing-glyph horiz-adv-x="500" />
<glyph unicode=" " glyph-name="space" horiz-adv-x="269" />
<glyph unicode="!" glyph-name="exclam" horiz-adv-x="357" d="M81 740H283L243 234H122L81 740ZM96 148H268V0H96V148Z" />
<glyph unicode="&quot;" glyph-name="quotedbl" horiz-adv-x="460" d="M260 666V740H396V666L379 470H277L260 666ZM63 666V740H200V666L183 470H80L63 666Z" />
<glyph unicode="#" glyph-name="numbersign" horiz-adv-x="763" d="M135 186H25V305H160L187 435H68V554H212L251 740H395L356 554H468L507 740H651L612 554H737V435H587L560 305H694V186H535L496 0H352L391 186H280L240 0H96L135 186ZM416 305L443 435H332L304 305H416Z" />
<glyph unicode="$" glyph-name="dollar" horiz-adv-x="683" d="M294 -9Q246 -4 208 10T139 45T85 93T43 150L152 220Q183 177 216 146T299 104V316Q254 327 212 342T136 382T83 442T63 532Q63 579 79 617T126 684T198 729T294 750V819H390V747Q432 741 464 729T522
699T568 661T605 615L497 537Q475 569 450 593T387 628V433Q439 421 483 405T561 363T612 301T631 211Q631 170 618 133T575 66T500 17T390 -9V-93H294V-9V-9ZM299 634Q254 628 233 604T211 546Q211 509 233 490T299 456V634V634ZM387 103Q435 110 459 132T483
196Q483 234 460 256T387 293V103V103Z" />
<glyph unicode="%" glyph-name="percent" horiz-adv-x="1108" d="M244 268Q197 268 160 285T96 334T57 410T43 510Q43 565 57 610T97 686T160 735T244 752Q290 752 327 735T389 687T429 611T443 511Q443 456 430 412T390 335T328 286T244 268ZM706 740H844L402
0H264L706 740ZM865 -10Q818 -10 781 7T718 56T679 133T665 232Q665 287 679 332T719 408T782 457T866 475Q912 475 949 458T1011 409T1051 333T1065 233Q1065 179 1052 134T1012 57T949 8T865 -10ZM244 369Q280 369 295 406T311 510Q311 576 295 612T244 649Q206
649 191 613T175 511Q175 444 191 407T244 369ZM866 92Q902 92 917 129T933 233Q933 299 917 335T865 371Q828 371 813 335T797 233Q797 166 813 129T866 92Z" />
<glyph unicode="&amp;" glyph-name="ampersand" horiz-adv-x="743" d="M295 -14Q157 -14 87 39T16 183Q16 228 30 262T67 322T121 368T186 404Q164 446 152 486T139 567Q139 603 151 637T189 697T255 738T349 754Q400 754 436 741T495 705T530 653T541 592Q541
550 527 518T490 461T435 417T370 380Q380 366 391 352T415 322Q437 295 457 272T496 231Q533 294 543 381H680Q672 322 654 264T604 154Q636 137 669 129T740 121V-10Q668 -9 612 4T504 47Q462 18 411 2T295 -14ZM319 465Q357 487 382 515T407 586Q407 609 395
629T352 649Q325 649 306 631T287 576Q287 524 319 465ZM296 98Q351 98 397 127Q373 150 348 178T296 241Q282 258 269 275T244 310Q214 290 197 264T179 206Q179 154 211 126T296 98Z" />
<glyph unicode="&apos;" glyph-name="quotesingle" horiz-adv-x="264" d="M63 666V740H200V666L183 470H80L63 666Z" />
<glyph unicode="(" glyph-name="parenleft" horiz-adv-x="404" d="M300 -205Q239 -154 192 -99T111 16T61 143T44 285Q44 360 61 427T111 554T191 669T300 775L374 697Q301 616 257 513T212 285Q212 159 257 54T379 -132L300 -205V-205Z" />
<glyph unicode=")" glyph-name="parenright" horiz-adv-x="404" d="M25 -132Q100 -51 145 54T191 285Q191 410 147 513T29 697L104 775Q165 724 212 669T292 554T342 427T359 285Q359 210 342 143T293 16T213 -99T104 -205L25 -132Z" />
<glyph unicode="*" glyph-name="asterisk" horiz-adv-x="508" d="M99 352L192 487L27 476V570L193 558L99 694L183 744L254 595L325 744L410 694L316 558L481 570V476L316 487L410 352L326 302L254 451L183 302L99 352Z" />
<glyph unicode="+" glyph-name="plus" horiz-adv-x="646" d="M259 287H67V414H259V614H387V414H579V287H387V87H259V287Z" />
<glyph unicode="," glyph-name="comma" horiz-adv-x="282" d="M120 0H55V155H227V22L153 -120H78L120 0Z" />
<glyph unicode="-" glyph-name="hyphen" horiz-adv-x="357" d="M47 368H310V260H47V368Z" />
<glyph unicode="." glyph-name="period" horiz-adv-x="282" d="M55 155H227V0H55V155Z" />
<glyph unicode="/" glyph-name="slash" horiz-adv-x="641" d="M453 740H618L188 0H23L453 740Z" />
<glyph unicode="0" glyph-name="zero" horiz-adv-x="696" d="M348 -14Q275 -14 218 13T122 91T61 212T40 370Q40 457 61 527T121 648T218 726T348 754Q421 754 478 727T574 649T634 528T655 370Q655 283 635 213T575 92T478 14T348 -14ZM348 113Q420 113 457 177T494
370Q494 498 456 561T348 624Q202 624 202 370Q202 242 240 178T348 113Z" />
<glyph unicode="1" glyph-name="one" horiz-adv-x="458" d="M32 127H166V593Q139 579 103 569T34 559V692Q122 695 170 740H323V127H440V0H32V127Z" />
<glyph unicode="2" glyph-name="two" horiz-adv-x="614" d="M26 16Q26 56 33 96T63 177T130 262T247 352Q290 379 320 399T370 439T398 479T407 528Q407 570 382 594T310 618Q266 618 223 591T148 512L33 593Q81 667 149 710T315 754Q435 754 500 696T565 539Q565
508 560 479T537 420T487 359T401 294Q320 243 271 202T219 127H570V0H26V16Z" />
<glyph unicode="3" glyph-name="three" horiz-adv-x="623" d="M299 -14Q204 -14 134 18T11 113L112 203Q149 158 197 137T292 115Q355 115 387 141T419 218Q419 280 375 303T242 327H205V446H245Q296 446 327 454T375 474T398 504T404 539Q404 576 381 598T297
621Q256 621 214 606T130 551L41 653Q91 701 164 727T316 753Q437 753 501 704T565 564Q565 499 528 453T420 392Q504 378 546 329T589 208Q589 156 568 115T509 45T418 1T299 -14Z" />
<glyph unicode="4" glyph-name="four" horiz-adv-x="676" d="M381 145H22V263L359 740H538V273H663V145H538V0H381V145ZM381 273V546H379L190 273H381Z" />
<glyph unicode="5" glyph-name="five" horiz-adv-x="609" d="M293 -14Q201 -14 134 12T16 84L98 191Q134 158 182 137T283 115Q357 115 390 152T424 246Q424 309 392 344T296 380Q258 380 224 362T160 309L55 342L85 740H534L526 617H210L196 453Q215 471 251
485T345 499Q404 499 449 481T524 430T570 352T586 252Q586 193 566 144T508 60T416 6T293 -14Z" />
<glyph unicode="6" glyph-name="six" horiz-adv-x="654" d="M342 -14Q276 -14 221 10T125 81T63 197T40 357Q40 464 69 539T144 662T249 732T366 754Q408 754 440 749T499 735T545 715T581 692L512 582Q480 604 449 614T373 625Q301 625 254 569T199 410Q238 440
283 458T384 477Q433 477 476 464T552 422T604 349T623 242Q623 184 603 137T546 57T457 5T342 -14ZM349 109Q379 109 401 119T439 147T462 187T470 235Q470 258 465 280T445 319T409 346T351 357Q303 357 266 340T199 295Q205 201 243 155T349 109Z" />
<glyph unicode="7" glyph-name="seven" horiz-adv-x="539" d="M364 609H12V740H530V620L245 0H81L364 609Z" />
<glyph unicode="8" glyph-name="eight" horiz-adv-x="638" d="M319 -14Q179 -14 100 40T21 191Q21 226 34 255T69 309T121 353T185 386Q155 402 131 419T90 457T64 505T55 567Q55 602 71 636T121 696T203 738T319 754Q387 754 436 738T518 696T566 636T582 567Q582
508 548 463T454 391Q490 375 519 358T570 317T604 264T616 191Q616 95 538 41T319 -14ZM330 444Q381 469 403 493T425 552Q425 567 420 582T402 610T369 631T320 639Q291 639 271 632T238 612T219 585T213 555Q213 513 243 490T330 444ZM319 97Q383 97 418 127T453
200Q453 243 418 270T307 329Q250 301 218 271T185 200Q185 158 220 128T319 97Z" />
<glyph unicode="9" glyph-name="nine" horiz-adv-x="654" d="M288 -14Q245 -14 212 -9T152 6T106 27T68 51L138 157Q171 134 202 123T281 111Q353 111 399 169T454 330Q415 300 370 282T269 263Q220 263 177 276T102 318T50 391T31 498Q31 556 51 603T108 683T197
735T312 754Q378 754 433 730T529 659T591 543T613 383Q613 277 584 202T509 78T405 8T288 -14ZM303 383Q350 383 388 400T454 445Q449 539 411 583T305 627Q275 627 253 618T215 592T192 553T184 505Q184 482 189 460T208 421T245 394T303 383Z" />
<glyph unicode=":" glyph-name="colon" horiz-adv-x="295" d="M61 533H234V378H61V533ZM61 155H234V0H61V155Z" />
<glyph unicode=";" glyph-name="semicolon" horiz-adv-x="295" d="M61 533H234V378H61V533ZM125 0H61V155H234V26L157 -120H82L125 0Z" />
<glyph unicode="&lt;" glyph-name="less" horiz-adv-x="646" d="M60 280V368L589 600V468L232 324L589 180V48L60 280Z" />
<glyph unicode="=" glyph-name="equal" horiz-adv-x="646" d="M70 499H575V385H70V499ZM70 271H575V157H70V271Z" />
<glyph unicode="&gt;" glyph-name="greater" horiz-adv-x="646" d="M62 180L419 324L62 468V600L591 368V280L62 48V180Z" />
<glyph unicode="?" glyph-name="question" horiz-adv-x="594" d="M211 232Q209 252 208 268T207 304Q207 333 215 355T238 396T271 429T313 456Q355 479 374 500T393 558Q393 588 369 607T299 626Q274 626 250 619T203 600T161 572T127 539L30 630Q53 656 82 678T146
717T224 744T316 754Q373 754 417 741T490 703T535 645T551 571Q551 536 542 510T516 463T479 427T433 398Q399 380 381 366T354 335T345 293T343 232H211V232ZM191 148H363V0H191V148Z" />
<glyph unicode="@" glyph-name="at" horiz-adv-x="868" d="M425 -14Q337 -14 266 14T145 94T69 215T42 368Q42 451 70 522T151 644T275 725T436 754Q524 754 596 726T719 649T798 531T826 380Q826 330 813 288T775 216T713 169T629 152Q569 152 539 176T496 241Q483
227 467 213T432 189T389 172T339 165Q277 165 241 204T205 319Q205 381 220 430T261 515T322 568T396 587Q444 587 469 572T512 536L519 579H641L592 281Q586 250 599 234T647 218Q695 218 725 259T755 376Q755 445 733 501T668 599T567 662T435 685Q362 685 304
662T204 596T140 496T118 368Q118 299 139 240T201 139T299 72T430 48Q542 48 618 99L652 50Q608 19 550 3T425 -14ZM392 258Q414 258 435 269T473 298L498 452Q481 470 465 478T426 486Q401 486 383 473T352 438T334 389T328 332Q328 297 341 278T392 258Z" />
<glyph unicode="A" glyph-name="A" horiz-adv-x="713" d="M279 743H434L696 0H531L476 165H224L167 0H17L279 743ZM438 283L353 535H351L264 283H438Z" />
<glyph unicode="B" glyph-name="B" horiz-adv-x="713" d="M76 740H372Q423 740 470 733T555 705T614 649T636 557Q636 518 625 489T594 439T549 406T495 387V385Q529 379 558 367T609 333T643 280T656 204Q656 148 634 109T574 46T488 11T387 0H76V740ZM356 435Q420
435 450 458T480 524Q480 568 452 591T358 614H236V435H356ZM367 124Q435 124 466 149T497 223Q497 320 360 320H236V124H367Z" />
<glyph unicode="C" glyph-name="C" horiz-adv-x="729" d="M377 -14Q305 -14 244 9T137 80T67 200T41 371Q41 467 67 539T138 659T245 730T377 754Q447 754 498 737T585 688T643 614T677 521L523 476Q514 508 502 534T473 579T433 608T376 619Q291 619 248 553T204
371Q204 254 249 186T378 117Q444 117 479 157T534 273L687 239Q674 183 650 137T589 57T499 5T377 -14Z" />
<glyph unicode="D" glyph-name="D" horiz-adv-x="740" d="M76 740H303Q388 740 460 721T586 659T669 545T699 374Q699 270 669 199T585 83T459 20T303 0H76V740ZM314 132Q374 132 416 146T485 189T524 263T536 372Q536 431 524 475T485 547T416 590T312 604H238V132H314Z" />
<glyph unicode="E" glyph-name="E" horiz-adv-x="633" d="M76 740H580V604H239V445H486V316H239V132H598V0H76V740Z" />
<glyph unicode="F" glyph-name="F" horiz-adv-x="586" d="M76 740H565V604H239V424H471V295H239V0H76V740Z" />
<glyph unicode="G" glyph-name="G" horiz-adv-x="761" d="M365 -14Q281 -14 220 15T119 96T60 218T41 373Q41 460 64 530T131 650T237 727T378 754Q431 754 477 743T562 704T630 631T677 517L528 476Q505 554 469 586T377 619Q355 619 325 611T269 576T224 502T205
376Q205 298 222 248T265 169T322 129T384 117Q445 117 485 152T536 250H407V371H691V0H560V102H558Q552 86 537 66T498 28T440 -2T365 -14Z" />
<glyph unicode="H" glyph-name="H" horiz-adv-x="769" d="M76 740H239V453H530V740H693V0H530V316H239V0H76V740Z" />
<glyph unicode="I" glyph-name="I" horiz-adv-x="330" d="M84 740H246V0H84V740Z" />
<glyph unicode="J" glyph-name="J" horiz-adv-x="535" d="M226 -14Q149 -14 98 10T10 68L101 170Q124 149 154 133T218 116Q262 116 286 145T310 243V740H473V218Q473 166 460 124T416 51T339 3T226 -14Z" />
<glyph unicode="K" glyph-name="K" horiz-adv-x="718" d="M76 740H239V434L487 740H677L426 451L703 0H519L320 328L239 237V0H76V740Z" />
<glyph unicode="L" glyph-name="L" horiz-adv-x="586" d="M76 740H239V132H565V0H76V740Z" />
<glyph unicode="M" glyph-name="M" horiz-adv-x="908" d="M76 740H291L456 196H458L612 740H832V0H675V505H673Q665 457 655 419T632 340L521 0H377L267 340Q261 361 256 378T245 415T235 458T224 513H222V0H76V740Z" />
<glyph unicode="N" glyph-name="N" horiz-adv-x="777" d="M76 740H239L549 268H551V740H701V0H551L228 476H226V0H76V740Z" />
<glyph unicode="O" glyph-name="O" horiz-adv-x="780" d="M390 -14Q323 -14 260 9T149 80T71 200T41 370Q41 468 70 540T148 659T260 730T390 754Q457 754 519 731T630 660T708 540T738 370Q738 273 709 201T631 81T520 10T390 -14ZM390 117Q433 117 467 134T526
185T563 265T576 370Q576 487 526 553T390 619Q303 619 254 553T204 370Q204 312 217 265T254 185T312 135T390 117Z" />
<glyph unicode="P" glyph-name="P" horiz-adv-x="676" d="M76 740H345Q404 740 458 731T555 695T622 622T647 503Q647 428 621 382T551 309T453 273T343 263H238V0H76V740ZM349 389Q425 389 456 417T488 499Q488 551 457 579T349 607H238V389H349Z" />
<glyph unicode="Q" glyph-name="Q" horiz-adv-x="780" d="M540 -198Q484 -198 440 -184T364 -143T316 -80T297 -2Q243 10 197 40T115 116T60 226T40 370Q40 468 69 540T147 659T259 730T389 754Q456 754 518 731T629 660T707 540T737 370Q737 286 715 221T656
109T568 34T462 -6Q470 -29 484 -41T518 -60T563 -67T616 -69H667V-198H540V-198ZM389 117Q432 117 466 134T524 185T561 265T574 370Q574 487 525 553T389 619Q302 619 252 553T202 370Q202 312 215 265T252 185T311 135T389 117Z" />
<glyph unicode="R" glyph-name="R" horiz-adv-x="705" d="M76 740H354Q422 740 476 728T567 687T625 616T645 511Q645 423 606 373T491 300L656 0H484L330 279H236V0H76V740ZM347 405Q418 405 452 427T486 507Q486 562 452 584T347 607H236V405H347Z" />
<glyph unicode="S" glyph-name="S" horiz-adv-x="692" d="M351 -14Q291 -14 242 -1T154 37T86 94T36 168L159 241Q190 180 242 148T359 115Q416 115 452 136T488 200Q488 242 450 264T338 307Q289 321 241 336T154 375T92 437T68 533Q68 585 87 626T142 695T226
739T335 754Q392 754 438 742T520 708T583 660T629 602L516 516Q487 564 438 592T334 621Q282 621 255 601T227 547Q227 503 266 482T379 440Q428 427 476 411T562 370T623 306T647 211Q647 166 630 126T576 54T484 5T351 -14Z" />
<glyph unicode="T" glyph-name="T" horiz-adv-x="648" d="M242 604H22V740H626V604H405V0H242V604Z" />
<glyph unicode="U" glyph-name="U" horiz-adv-x="725" d="M363 -12Q286 -12 230 8T137 67T82 160T64 283V740H227V287Q227 206 259 163T365 120Q437 120 469 163T501 287V740H661V284Q661 216 644 161T590 68T497 9T363 -12Z" />
<glyph unicode="V" glyph-name="V" horiz-adv-x="698" d="M17 740H182L351 211H353L528 740H681L426 -3H272L17 740Z" />
<glyph unicode="W" glyph-name="W" horiz-adv-x="956" d="M21 740H185L263 403Q274 362 282 326T299 241H301Q308 287 316 324T335 402L410 740H560L640 400Q645 378 650 360T659 323T667 286T675 241H677Q681 266 684 285T692 322T700 358T710 398L785 740H935L742
0H603L486 515H484L359 0H218L21 740Z" />
<glyph unicode="X" glyph-name="X" horiz-adv-x="725" d="M269 391L53 740H239L371 518L496 740H664L453 390L693 0H512L355 259L203 0H32L269 391Z" />
<glyph unicode="Y" glyph-name="Y" horiz-adv-x="691" d="M264 314L9 740H177L346 452L516 740H682L426 314V0H264V314Z" />
<glyph unicode="Z" glyph-name="Z" horiz-adv-x="660" d="M30 112L416 605H55V740H621V624L243 132H621V0H30V112Z" />
<glyph unicode="[" glyph-name="bracketleft" horiz-adv-x="444" d="M69 740H415V628H231V-88H415V-200H69V740Z" />
<glyph unicode="\" glyph-name="backslash" horiz-adv-x="611" d="M8 740H173L603 0H438L8 740Z" />
<glyph unicode="]" glyph-name="bracketright" horiz-adv-x="444" d="M28 -88H212V628H28V740H374V-200H28V-88Z" />
<glyph unicode="^" glyph-name="asciicircum" horiz-adv-x="553" d="M222 763H330L459 592H368L275 666L185 592H93L222 763Z" />
<glyph unicode="_" glyph-name="underscore" horiz-adv-x="500" d="M0 -46H500V-158H0V-46Z" />
<glyph unicode="`" glyph-name="grave" horiz-adv-x="500" d="M97 763H259L352 590H246L97 763Z" />
<glyph unicode="a" glyph-name="a" horiz-adv-x="577" d="M178 -8Q147 -8 120 1T71 29T38 75T26 136Q26 228 107 280T364 346V359Q364 388 348 405T292 423Q241 423 198 405T117 357L49 449Q69 467 94 484T152 514T224 536T315 544Q425 544 473 491T521 335V130Q521
82 524 51T536 0H376Q371 17 368 36T364 78Q327 36 283 14T178 -8ZM242 113Q284 113 314 126T364 159V258Q268 248 226 225T183 164Q183 138 199 126T242 113Z" />
<glyph unicode="b" glyph-name="b" horiz-adv-x="624" d="M384 -8Q330 -8 291 10T222 63V0H61V740H222V451Q248 488 287 516T386 544Q431 544 469 527T534 475T576 388T591 267Q591 198 576 147T534 61T468 9T384 -8ZM329 113Q380 113 405 153T430 266Q430 333
406 372T327 411Q296 411 269 395T222 359V162Q248 137 272 125T329 113Z" />
<glyph unicode="c" glyph-name="c" horiz-adv-x="555" d="M294 -11Q247 -11 201 3T117 49T56 135T32 266Q32 346 57 399T122 485T209 530T301 544Q355 544 394 531T460 495T504 443T533 381L398 336Q382 387 358 406T299 426Q250 426 222 386T193 265Q193 229
199 200T217 148T249 114T297 102Q329 102 357 122T402 197L535 151Q522 120 503 91T455 39T387 3T294 -11Z" />
<glyph unicode="d" glyph-name="d" horiz-adv-x="624" d="M237 -8Q192 -8 154 8T89 58T47 142T32 262Q32 331 47 383T89 472T155 526T239 544Q293 544 332 525T401 466V740H562V130Q562 82 565 51T578 0H413Q410 5 408 14T405 35T402 58T401 80Q375 44 336 18T237
-8ZM297 113Q328 113 354 129T401 165V362Q375 387 351 399T295 411Q193 411 193 263Q193 196 218 155T297 113Z" />
<glyph unicode="e" glyph-name="e" horiz-adv-x="577" d="M304 -11Q252 -11 203 3T116 50T55 136T32 266Q32 344 58 397T125 482T212 529T300 544Q341 544 384 532T463 486T522 396T545 247V223H192Q198 157 231 129T316 101Q364 101 405 120T474 165L536 69Q442
-11 304 -11ZM401 318Q389 429 299 429Q261 429 232 403T194 318H401Z" />
<glyph unicode="f" glyph-name="f" horiz-adv-x="405" d="M109 416H20V533H109V570Q109 603 115 634T142 690T198 729T294 744Q306 744 321 743T350 741T376 739T391 737V625Q385 627 371 628T344 629Q329 629 316 627T292 619T275 599T269 565V533H385V416H269V0H109V416Z"
/>
<glyph unicode="g" glyph-name="g" horiz-adv-x="615" d="M271 -200Q193 -200 140 -192T55 -169T9 -131T-5 -80Q-5 -41 22 -15T87 27Q51 50 51 91Q51 124 73 152T128 200Q84 226 62 265T40 353Q40 393 56 428T102 488T177 529T280 544Q340 544 384 529T459 486Q486
509 524 524T596 541V418Q582 418 559 416T506 406Q516 383 516 353Q516 313 501 278T455 218T381 178T280 163Q257 163 237 165T198 172Q190 165 185 159T180 145Q180 130 195 126T240 119L320 114Q457 109 517 74T577 -37Q577 -78 554 -109T491 -160T394 -190T271
-200ZM282 252Q327 252 350 279T373 347Q373 388 350 415T282 442Q237 442 214 415T191 347Q191 306 214 279T282 252ZM297 -119Q359 -119 397 -105T436 -64Q436 -52 432 -43T412 -27T369 -16T294 -10L210 -6Q201 -5 192 -5T175 -3Q145 -23 145 -51Q145 -86 180
-102T297 -119Z" />
<glyph unicode="h" glyph-name="h" horiz-adv-x="618" d="M61 740H222V449Q234 465 251 481T291 512T342 535T406 544Q440 544 468 536T518 508T550 460T562 389V0H401V338Q401 374 387 392T339 411Q306 411 278 396T222 358V0H61V740Z" />
<glyph unicode="i" glyph-name="i" horiz-adv-x="294" d="M66 735H228V606H66V735ZM67 533H227V0H67V533Z" />
<glyph unicode="j" glyph-name="j" horiz-adv-x="294" d="M66 735H228V606H66V735ZM54 -203Q42 -203 27 -202T-3 -200T-29 -198T-44 -196V-87Q-37 -89 -23 -91T2 -93Q35 -93 51 -76T67 -20V533H227V-51Q227 -79 222 -106T198 -154T146 -189T54 -203Z" />
<glyph unicode="k" glyph-name="k" horiz-adv-x="585" d="M61 740H222V334L388 533H561L387 334L571 0H405L287 217L222 144V0H61V740Z" />
<glyph unicode="l" glyph-name="l" horiz-adv-x="294" d="M67 740H227V0H67V740Z" />
<glyph unicode="m" glyph-name="m" horiz-adv-x="932" d="M61 533H222V449Q234 465 251 481T290 512T339 535T397 544Q464 544 498 519T543 449Q555 464 572 481T611 512T661 535T719 544Q760 544 789 532T837 498T866 447T875 381V0H714V338Q714 374 703 392T656
411Q626 411 601 396T549 358V0H388V338Q388 374 377 392T330 411Q300 411 275 396T222 358V0H61V533Z" />
<glyph unicode="n" glyph-name="n" horiz-adv-x="618" d="M62 533H223V449Q235 465 252 481T292 512T343 535T407 544Q441 544 469 536T518 508T550 460T562 389V0H402V338Q402 374 388 392T339 411Q307 411 279 396T223 358V0H62V533Z" />
<glyph unicode="o" glyph-name="o" horiz-adv-x="609" d="M305 -11Q257 -11 208 3T120 49T57 135T32 266Q32 344 56 397T120 483T207 530T305 544Q353 544 401 530T489 484T552 398T577 266Q577 188 553 135T489 50T402 3T305 -11ZM305 102Q362 102 389 147T416
265Q416 298 410 327T391 379T356 413T305 426Q247 426 220 382T193 265Q193 232 199 202T218 150T253 115T305 102Z" />
<glyph unicode="p" glyph-name="p" horiz-adv-x="624" d="M61 533H222V452Q248 488 287 516T386 544Q431 544 469 527T534 475T576 388T591 267Q591 198 576 147T534 61T468 9T384 -8Q330 -8 291 10T222 63V-200H61V533ZM329 113Q380 113 405 153T430 266Q430
333 406 372T327 411Q296 411 269 395T222 359V162Q248 137 272 125T329 113Z" />
<glyph unicode="q" glyph-name="q" horiz-adv-x="624" d="M401 76Q375 43 336 18T237 -8Q192 -8 154 8T89 58T47 142T32 262Q32 331 47 383T89 472T155 526T239 544Q293 544 332 525T401 467V533H562V-200H401V76ZM297 113Q328 113 354 129T401 165V362Q375 387
351 399T295 411Q193 411 193 263Q193 196 218 155T297 113Z" />
<glyph unicode="r" glyph-name="r" horiz-adv-x="423" d="M61 533H222V444H223Q234 461 249 478T286 510T337 534T403 544H408L406 401Q401 402 387 403T364 404Q316 404 281 382T222 331V0H61V533Z" />
<glyph unicode="s" glyph-name="s" horiz-adv-x="534" d="M271 -11Q183 -11 123 12T22 71L86 161Q122 129 172 111T271 92Q309 92 332 105T356 144Q356 172 333 185T255 208Q217 215 180 224T113 251T65 298T46 375Q46 415 61 446T105 499T170 532T253 544Q335
544 389 524T487 469L424 378Q383 406 344 421T267 436Q232 436 214 424T195 389Q195 365 217 353T290 332Q329 325 368 316T437 290T487 243T506 169Q506 121 487 87T435 31T360 -1T271 -11Z" />
<glyph unicode="t" glyph-name="t" horiz-adv-x="427" d="M285 -7Q226 -7 190 3T135 34T110 83T104 150V416H15V533H104V716H264V533H401V416H264V185Q264 142 279 126T338 110Q352 110 367 111T391 116V1Q387 0 375 -1T347 -4T315 -6T285 -7Z" />
<glyph unicode="u" glyph-name="u" horiz-adv-x="618" d="M212 -11Q178 -11 150 -2T100 25T68 73T56 144V533H217V191Q217 155 231 136T280 117Q312 117 340 132T396 171V533H557V0H396V83Q384 68 367 51T327 21T276 -2T212 -11Z" />
<glyph unicode="v" glyph-name="v" horiz-adv-x="540" d="M-2 533H164L276 178H278L390 533H541L351 -1H189L-2 533Z" />
<glyph unicode="w" glyph-name="w" horiz-adv-x="775" d="M2 533H164L210 342Q215 321 219 303T228 266T236 226T245 179H247Q252 205 256 226T264 267T273 305T284 346L330 533H455L504 343Q510 322 514 304T523 266T532 226T542 179H544Q549 205 553 225T561
265T570 302T581 341L630 533H773L617 0H468L388 325H386L306 0H158L2 533Z" />
<glyph unicode="x" glyph-name="x" horiz-adv-x="548" d="M194 275L24 533H193L285 386L372 533H534L362 275L542 0H374L272 161L173 0H11L194 275Z" />
<glyph unicode="y" glyph-name="y" horiz-adv-x="560" d="M145 -204Q85 -204 50 -198T-7 -185L27 -61Q38 -64 65 -69T128 -75Q154 -75 170 -65T196 -29L206 -3L2 533H168L285 187H287L405 533H561L337 -56Q324 -91 307 -118T268 -164T215 -194T145 -204Z" />
<glyph unicode="z" glyph-name="z" horiz-adv-x="530" d="M29 83L287 416H48V533H486V448L227 114H506V0H29V83Z" />
<glyph unicode="{" glyph-name="braceleft" horiz-adv-x="441" d="M278 -200Q209 -200 173 -159T136 -52V93Q136 130 129 153T109 189T74 208T25 213V327Q53 327 74 332T108 350T129 387T136 447V592Q136 658 172 699T278 740H420V628H376Q335 628 317 608T298
549V425Q298 388 293 362T276 318T249 289T213 271V269Q233 262 249 251T276 222T292 178T298 115V-9Q298 -47 316 -67T376 -88H420V-200H278V-200Z" />
<glyph unicode="|" glyph-name="bar" horiz-adv-x="400" d="M120 740H279V-200H120V740Z" />
<glyph unicode="}" glyph-name="braceright" horiz-adv-x="441" d="M21 -88H65Q106 -88 124 -68T143 -9V130Q143 167 148 190T165 229T192 253T228 269V271Q208 278 192 286T165 310T149 349T143 410V549Q143 587 125 608T66 629H22L21 740H178Q247 740 276 707T305
607V447Q305 410 312 387T332 351T367 332T416 327V213Q388 213 367 208T333 190T312 153T305 93V-67Q305 -133 276 -166T178 -200H21V-88Z" />
<glyph unicode="~" glyph-name="asciitilde" horiz-adv-x="523" d="M338 372Q311 372 291 381T255 400T225 419T194 428Q174 428 164 416T153 374H66Q66 459 98 496T185 533Q212 533 232 525T268 506T298 486T329 477Q349 477 359 489T370 531H456Q456 446 424
409T338 372Z" />
</font>
</defs>
</svg>
